# xmcd
#
# Track frame offsets:
#	183
#	20255
#	33820
#	53398
#	70628
#	94083
#	111995
#	128308
#	148958
#	167108
#	184705
#	200560
#	222135
#	240290
#	260080
#	278420
#	295348
#	318163
#
# Disc length: 4476 seconds
#
# Revision: 0
# Processed by: cddbd v1.5.2PL0 Copyright (c) Steve Scherf et al.
# Submitted via: EasyCDDAExtractor 11.9.9.666
#
DISCID=f5117a12
DTITLE=Various Artist - At The Edge Compilation Vol2
DYEAR=1988
DGENRE=Gospel
TTITLE0=Edin-Adahl - I Know
TTITLE1=DA - Return Of The Beat Menace
TTITLE2=Mad At The World - Flowers In The Rain
TTITLE3=L.S.U. - Lonely Boy
TTITLE4=Norman Barratt - Now I'Know
TTITLE5=Nobody Special - Ain't That Hard
TTITLE6=Chrystal Lewis - Frustrated
TTITLE7=Neguissie and Ericksson - Same Reply
TTITLE8=Trade Secret - This Time
TTITLE9=Jon Gibson - Change Of Heart
TTITLE10=Damaris Joy - Open Door
TTITLE11=Bloodgood - The Messiah
TTITLE12=Altar Boys - Broken
TTITLE13=Crumbächer - Backyard Changes
TTITLE14=Vox De Luxe - Like A Picture
TTITLE15=Common Bond - Face To Face
TTITLE16=Edin-Adahl - Heaven
TTITLE17=Chrystal Lewis - Breakdown
EXTD=
EXTT0=
EXTT1=
EXTT2=
EXTT3=
EXTT4=
EXTT5=
EXTT6=
EXTT7=
EXTT8=
EXTT9=
EXTT10=
EXTT11=
EXTT12=
EXTT13=
EXTT14=
EXTT15=
EXTT16=
EXTT17=
PLAYORDER=
